<mxfile host="app.diagrams.net" agent="Mozilla/5.0 (Windows NT 10.0; Win64; x64) AppleWebKit/537.36 (KHTML, like Gecko) Chrome/134.0.0.0 Safari/537.36" version="26.1.0">
  <diagram name="페이지-1" id="W-NW3DfqwmRI1GUI-Ptw">
    <mxGraphModel dx="1075" dy="613" grid="1" gridSize="10" guides="1" tooltips="1" connect="1" arrows="1" fold="1" page="1" pageScale="1" pageWidth="827" pageHeight="1169" math="0" shadow="0">
      <root>
        <mxCell id="0" />
        <mxCell id="1" parent="0" />
        <mxCell id="0c0Xcodrv3Obggw16LVs-1" value="고객" style="swimlane;childLayout=stackLayout;horizontal=1;startSize=50;horizontalStack=0;rounded=1;fontSize=14;fontStyle=0;strokeWidth=2;resizeParent=0;resizeLast=1;shadow=0;dashed=0;align=center;arcSize=4;whiteSpace=wrap;html=1;" vertex="1" collapsed="1" parent="1">
          <mxGeometry x="420" y="300" width="80" height="50" as="geometry">
            <mxRectangle x="50" y="230" width="160" height="120" as="alternateBounds" />
          </mxGeometry>
        </mxCell>
        <mxCell id="0c0Xcodrv3Obggw16LVs-2" value="+Attribute1&#xa;+Attribute2&#xa;+Attribute3" style="align=left;strokeColor=none;fillColor=none;spacingLeft=4;spacingRight=4;fontSize=12;verticalAlign=top;resizable=0;rotatable=0;part=1;html=1;whiteSpace=wrap;" vertex="1" parent="0c0Xcodrv3Obggw16LVs-1">
          <mxGeometry y="50" width="160" height="70" as="geometry" />
        </mxCell>
        <mxCell id="0c0Xcodrv3Obggw16LVs-5" value="" style="endArrow=none;html=1;rounded=0;" edge="1" parent="0c0Xcodrv3Obggw16LVs-1">
          <mxGeometry relative="1" as="geometry">
            <mxPoint x="-229.9962680812456" y="-96.72770802882906" as="sourcePoint" />
            <mxPoint x="42.60000000000002" as="targetPoint" />
          </mxGeometry>
        </mxCell>
        <mxCell id="0c0Xcodrv3Obggw16LVs-3" value="고객명" style="ellipse;whiteSpace=wrap;html=1;align=center;" vertex="1" parent="1">
          <mxGeometry x="280" y="190" width="100" height="40" as="geometry" />
        </mxCell>
        <mxCell id="0c0Xcodrv3Obggw16LVs-6" value="" style="endArrow=none;html=1;rounded=0;exitX=0.5;exitY=1;exitDx=0;exitDy=0;entryX=0.5;entryY=0;entryDx=0;entryDy=0;" edge="1" parent="1" source="0c0Xcodrv3Obggw16LVs-3" target="0c0Xcodrv3Obggw16LVs-1">
          <mxGeometry relative="1" as="geometry">
            <mxPoint x="600" y="310" as="sourcePoint" />
            <mxPoint x="760" y="310" as="targetPoint" />
          </mxGeometry>
        </mxCell>
        <mxCell id="0c0Xcodrv3Obggw16LVs-7" value="&lt;u&gt;전화번호&lt;/u&gt;" style="ellipse;whiteSpace=wrap;html=1;align=center;" vertex="1" parent="1">
          <mxGeometry x="390" y="200" width="100" height="40" as="geometry" />
        </mxCell>
        <mxCell id="0c0Xcodrv3Obggw16LVs-10" value="" style="endArrow=none;html=1;rounded=0;exitX=0.5;exitY=1;exitDx=0;exitDy=0;" edge="1" parent="1" source="0c0Xcodrv3Obggw16LVs-7">
          <mxGeometry relative="1" as="geometry">
            <mxPoint x="460" y="230" as="sourcePoint" />
            <mxPoint x="460" y="300" as="targetPoint" />
          </mxGeometry>
        </mxCell>
        <mxCell id="0c0Xcodrv3Obggw16LVs-11" value="&lt;u&gt;이메일&lt;/u&gt;" style="ellipse;whiteSpace=wrap;html=1;align=center;" vertex="1" parent="1">
          <mxGeometry x="490" y="240" width="100" height="40" as="geometry" />
        </mxCell>
        <mxCell id="0c0Xcodrv3Obggw16LVs-12" value="" style="endArrow=none;html=1;rounded=0;exitX=0;exitY=0.5;exitDx=0;exitDy=0;entryX=0.5;entryY=0;entryDx=0;entryDy=0;" edge="1" parent="1" source="0c0Xcodrv3Obggw16LVs-11" target="0c0Xcodrv3Obggw16LVs-1">
          <mxGeometry relative="1" as="geometry">
            <mxPoint x="560" y="260" as="sourcePoint" />
            <mxPoint x="470" y="310" as="targetPoint" />
          </mxGeometry>
        </mxCell>
        <mxCell id="0c0Xcodrv3Obggw16LVs-13" value="&lt;u&gt;고객코드&lt;/u&gt;" style="ellipse;whiteSpace=wrap;html=1;align=center;" vertex="1" parent="1">
          <mxGeometry x="530" y="280" width="100" height="40" as="geometry" />
        </mxCell>
        <mxCell id="0c0Xcodrv3Obggw16LVs-15" value="" style="endArrow=none;html=1;rounded=0;exitX=0;exitY=0.5;exitDx=0;exitDy=0;" edge="1" parent="1" source="0c0Xcodrv3Obggw16LVs-13">
          <mxGeometry relative="1" as="geometry">
            <mxPoint x="500" y="270" as="sourcePoint" />
            <mxPoint x="460" y="300" as="targetPoint" />
          </mxGeometry>
        </mxCell>
        <mxCell id="0c0Xcodrv3Obggw16LVs-16" value="주소" style="ellipse;whiteSpace=wrap;html=1;align=center;" vertex="1" parent="1">
          <mxGeometry x="260" y="260" width="100" height="40" as="geometry" />
        </mxCell>
        <mxCell id="0c0Xcodrv3Obggw16LVs-17" value="" style="endArrow=none;html=1;rounded=0;exitX=0.5;exitY=0;exitDx=0;exitDy=0;entryX=1;entryY=0.5;entryDx=0;entryDy=0;" edge="1" parent="1" source="0c0Xcodrv3Obggw16LVs-1" target="0c0Xcodrv3Obggw16LVs-16">
          <mxGeometry relative="1" as="geometry">
            <mxPoint x="390" y="310" as="sourcePoint" />
            <mxPoint x="320" y="310" as="targetPoint" />
          </mxGeometry>
        </mxCell>
        <mxCell id="0c0Xcodrv3Obggw16LVs-18" value="기본주소" style="ellipse;whiteSpace=wrap;html=1;align=center;" vertex="1" parent="1">
          <mxGeometry x="150" y="220" width="100" height="40" as="geometry" />
        </mxCell>
        <mxCell id="0c0Xcodrv3Obggw16LVs-19" value="상세주소" style="ellipse;whiteSpace=wrap;html=1;align=center;" vertex="1" parent="1">
          <mxGeometry x="140" y="290" width="100" height="40" as="geometry" />
        </mxCell>
        <mxCell id="0c0Xcodrv3Obggw16LVs-20" value="" style="endArrow=none;html=1;rounded=0;exitX=0;exitY=0.5;exitDx=0;exitDy=0;entryX=1;entryY=0.5;entryDx=0;entryDy=0;" edge="1" parent="1" source="0c0Xcodrv3Obggw16LVs-16" target="0c0Xcodrv3Obggw16LVs-18">
          <mxGeometry relative="1" as="geometry">
            <mxPoint x="300" y="290" as="sourcePoint" />
            <mxPoint x="200" y="270" as="targetPoint" />
          </mxGeometry>
        </mxCell>
        <mxCell id="0c0Xcodrv3Obggw16LVs-21" value="" style="endArrow=none;html=1;rounded=0;exitX=0;exitY=0.5;exitDx=0;exitDy=0;entryX=1;entryY=0.5;entryDx=0;entryDy=0;" edge="1" parent="1" source="0c0Xcodrv3Obggw16LVs-16" target="0c0Xcodrv3Obggw16LVs-19">
          <mxGeometry relative="1" as="geometry">
            <mxPoint x="330" y="320" as="sourcePoint" />
            <mxPoint x="230" y="300" as="targetPoint" />
          </mxGeometry>
        </mxCell>
        <mxCell id="0c0Xcodrv3Obggw16LVs-22" value="가입일" style="ellipse;whiteSpace=wrap;html=1;align=center;" vertex="1" parent="1">
          <mxGeometry x="270" y="360" width="100" height="40" as="geometry" />
        </mxCell>
        <mxCell id="0c0Xcodrv3Obggw16LVs-23" value="" style="endArrow=none;html=1;rounded=0;exitX=0;exitY=0.5;exitDx=0;exitDy=0;entryX=0.5;entryY=0;entryDx=0;entryDy=0;" edge="1" parent="1" source="0c0Xcodrv3Obggw16LVs-1" target="0c0Xcodrv3Obggw16LVs-22">
          <mxGeometry relative="1" as="geometry">
            <mxPoint x="420" y="350" as="sourcePoint" />
            <mxPoint x="350" y="350" as="targetPoint" />
          </mxGeometry>
        </mxCell>
        <mxCell id="0c0Xcodrv3Obggw16LVs-28" value="지역" style="swimlane;childLayout=stackLayout;horizontal=1;startSize=50;horizontalStack=0;rounded=1;fontSize=14;fontStyle=0;strokeWidth=2;resizeParent=0;resizeLast=1;shadow=0;dashed=0;align=center;arcSize=4;whiteSpace=wrap;html=1;" vertex="1" collapsed="1" parent="1">
          <mxGeometry x="414" y="630" width="80" height="50" as="geometry">
            <mxRectangle x="50" y="230" width="160" height="120" as="alternateBounds" />
          </mxGeometry>
        </mxCell>
        <mxCell id="0c0Xcodrv3Obggw16LVs-29" value="+Attribute1&#xa;+Attribute2&#xa;+Attribute3" style="align=left;strokeColor=none;fillColor=none;spacingLeft=4;spacingRight=4;fontSize=12;verticalAlign=top;resizable=0;rotatable=0;part=1;html=1;whiteSpace=wrap;" vertex="1" parent="0c0Xcodrv3Obggw16LVs-28">
          <mxGeometry y="50" width="160" height="70" as="geometry" />
        </mxCell>
        <mxCell id="0c0Xcodrv3Obggw16LVs-30" value="" style="endArrow=none;html=1;rounded=0;" edge="1" parent="0c0Xcodrv3Obggw16LVs-28">
          <mxGeometry relative="1" as="geometry">
            <mxPoint x="-229.9962680812456" y="-96.72770802882906" as="sourcePoint" />
            <mxPoint x="42.60000000000002" as="targetPoint" />
          </mxGeometry>
        </mxCell>
        <mxCell id="0c0Xcodrv3Obggw16LVs-31" value="제품" style="swimlane;childLayout=stackLayout;horizontal=1;startSize=50;horizontalStack=0;rounded=1;fontSize=14;fontStyle=0;strokeWidth=2;resizeParent=0;resizeLast=1;shadow=0;dashed=0;align=center;arcSize=4;whiteSpace=wrap;html=1;" vertex="1" collapsed="1" parent="1">
          <mxGeometry x="880" y="482.5" width="80" height="50" as="geometry">
            <mxRectangle x="50" y="230" width="160" height="120" as="alternateBounds" />
          </mxGeometry>
        </mxCell>
        <mxCell id="0c0Xcodrv3Obggw16LVs-32" value="+Attribute1&#xa;+Attribute2&#xa;+Attribute3" style="align=left;strokeColor=none;fillColor=none;spacingLeft=4;spacingRight=4;fontSize=12;verticalAlign=top;resizable=0;rotatable=0;part=1;html=1;whiteSpace=wrap;" vertex="1" parent="0c0Xcodrv3Obggw16LVs-31">
          <mxGeometry y="50" width="160" height="70" as="geometry" />
        </mxCell>
        <mxCell id="0c0Xcodrv3Obggw16LVs-33" value="" style="endArrow=none;html=1;rounded=0;" edge="1" parent="0c0Xcodrv3Obggw16LVs-31">
          <mxGeometry relative="1" as="geometry">
            <mxPoint x="-229.9962680812456" y="-96.72770802882906" as="sourcePoint" />
            <mxPoint x="42.60000000000002" as="targetPoint" />
          </mxGeometry>
        </mxCell>
        <mxCell id="0c0Xcodrv3Obggw16LVs-34" value="지역명" style="ellipse;whiteSpace=wrap;html=1;align=center;" vertex="1" parent="1">
          <mxGeometry x="200" y="580" width="100" height="40" as="geometry" />
        </mxCell>
        <mxCell id="0c0Xcodrv3Obggw16LVs-35" value="&lt;u&gt;지역코드&lt;/u&gt;" style="ellipse;whiteSpace=wrap;html=1;align=center;" vertex="1" parent="1">
          <mxGeometry x="190" y="655" width="100" height="40" as="geometry" />
        </mxCell>
        <mxCell id="0c0Xcodrv3Obggw16LVs-36" value="" style="endArrow=none;html=1;rounded=0;exitX=0;exitY=0.5;exitDx=0;exitDy=0;entryX=1;entryY=0.5;entryDx=0;entryDy=0;" edge="1" parent="1" source="0c0Xcodrv3Obggw16LVs-28" target="0c0Xcodrv3Obggw16LVs-35">
          <mxGeometry relative="1" as="geometry">
            <mxPoint x="330" y="675" as="sourcePoint" />
            <mxPoint x="300" y="715" as="targetPoint" />
          </mxGeometry>
        </mxCell>
        <mxCell id="0c0Xcodrv3Obggw16LVs-37" value="" style="endArrow=none;html=1;rounded=0;exitX=0;exitY=0.5;exitDx=0;exitDy=0;entryX=1;entryY=0.5;entryDx=0;entryDy=0;" edge="1" parent="1" source="0c0Xcodrv3Obggw16LVs-28" target="0c0Xcodrv3Obggw16LVs-34">
          <mxGeometry relative="1" as="geometry">
            <mxPoint x="330" y="560" as="sourcePoint" />
            <mxPoint x="310" y="609" as="targetPoint" />
          </mxGeometry>
        </mxCell>
        <mxCell id="0c0Xcodrv3Obggw16LVs-38" value="제품코드" style="ellipse;whiteSpace=wrap;html=1;align=center;" vertex="1" parent="1">
          <mxGeometry x="770" y="422.5" width="100" height="40" as="geometry" />
        </mxCell>
        <mxCell id="0c0Xcodrv3Obggw16LVs-39" value="제품명" style="ellipse;whiteSpace=wrap;html=1;align=center;" vertex="1" parent="1">
          <mxGeometry x="887" y="412.5" width="100" height="40" as="geometry" />
        </mxCell>
        <mxCell id="0c0Xcodrv3Obggw16LVs-40" value="제품구분" style="ellipse;whiteSpace=wrap;html=1;align=center;" vertex="1" parent="1">
          <mxGeometry x="1000" y="452.5" width="100" height="40" as="geometry" />
        </mxCell>
        <mxCell id="0c0Xcodrv3Obggw16LVs-42" value="가격" style="ellipse;whiteSpace=wrap;html=1;align=center;" vertex="1" parent="1">
          <mxGeometry x="980" y="567.5" width="100" height="40" as="geometry" />
        </mxCell>
        <mxCell id="0c0Xcodrv3Obggw16LVs-43" value="제품색상" style="ellipse;shape=doubleEllipse;margin=3;whiteSpace=wrap;html=1;align=center;" vertex="1" parent="1">
          <mxGeometry x="1000" y="512.5" width="100" height="40" as="geometry" />
        </mxCell>
        <mxCell id="0c0Xcodrv3Obggw16LVs-44" value="" style="endArrow=none;html=1;rounded=0;exitX=0.5;exitY=1;exitDx=0;exitDy=0;entryX=0;entryY=0.5;entryDx=0;entryDy=0;" edge="1" parent="1" target="0c0Xcodrv3Obggw16LVs-31">
          <mxGeometry relative="1" as="geometry">
            <mxPoint x="830" y="462.5" as="sourcePoint" />
            <mxPoint x="870" y="552.5" as="targetPoint" />
          </mxGeometry>
        </mxCell>
        <mxCell id="0c0Xcodrv3Obggw16LVs-45" value="" style="endArrow=none;html=1;rounded=0;exitX=0.5;exitY=1;exitDx=0;exitDy=0;entryX=0.613;entryY=0.02;entryDx=0;entryDy=0;entryPerimeter=0;" edge="1" parent="1" target="0c0Xcodrv3Obggw16LVs-31">
          <mxGeometry relative="1" as="geometry">
            <mxPoint x="940" y="452.5" as="sourcePoint" />
            <mxPoint x="1000" y="497.5" as="targetPoint" />
          </mxGeometry>
        </mxCell>
        <mxCell id="0c0Xcodrv3Obggw16LVs-46" value="" style="endArrow=none;html=1;rounded=0;entryX=0;entryY=0.5;entryDx=0;entryDy=0;exitX=1;exitY=0.5;exitDx=0;exitDy=0;" edge="1" parent="1" source="0c0Xcodrv3Obggw16LVs-31" target="0c0Xcodrv3Obggw16LVs-40">
          <mxGeometry relative="1" as="geometry">
            <mxPoint x="970" y="487.5" as="sourcePoint" />
            <mxPoint x="1020" y="522.5" as="targetPoint" />
          </mxGeometry>
        </mxCell>
        <mxCell id="0c0Xcodrv3Obggw16LVs-47" value="" style="endArrow=none;html=1;rounded=0;entryX=0;entryY=0.5;entryDx=0;entryDy=0;" edge="1" parent="1" target="0c0Xcodrv3Obggw16LVs-43">
          <mxGeometry relative="1" as="geometry">
            <mxPoint x="960" y="512.5" as="sourcePoint" />
            <mxPoint x="1010" y="482.5" as="targetPoint" />
          </mxGeometry>
        </mxCell>
        <mxCell id="0c0Xcodrv3Obggw16LVs-48" value="" style="endArrow=none;html=1;rounded=0;entryX=0.43;entryY=-0.05;entryDx=0;entryDy=0;exitX=0.5;exitY=1;exitDx=0;exitDy=0;entryPerimeter=0;" edge="1" parent="1" source="0c0Xcodrv3Obggw16LVs-31" target="0c0Xcodrv3Obggw16LVs-42">
          <mxGeometry relative="1" as="geometry">
            <mxPoint x="980" y="527.5" as="sourcePoint" />
            <mxPoint x="1020" y="492.5" as="targetPoint" />
          </mxGeometry>
        </mxCell>
        <mxCell id="0c0Xcodrv3Obggw16LVs-50" value="고객" style="ellipse;whiteSpace=wrap;html=1;align=center;" vertex="1" parent="1">
          <mxGeometry x="860" y="567.5" width="100" height="40" as="geometry" />
        </mxCell>
        <mxCell id="0c0Xcodrv3Obggw16LVs-51" value="" style="endArrow=none;html=1;rounded=0;entryX=0;entryY=0;entryDx=0;entryDy=0;exitX=1;exitY=0.5;exitDx=0;exitDy=0;" edge="1" parent="1" source="0c0Xcodrv3Obggw16LVs-1" target="0c0Xcodrv3Obggw16LVs-59">
          <mxGeometry relative="1" as="geometry">
            <mxPoint x="510" y="350" as="sourcePoint" />
            <mxPoint x="529" y="364" as="targetPoint" />
          </mxGeometry>
        </mxCell>
        <mxCell id="0c0Xcodrv3Obggw16LVs-67" value="N" style="edgeLabel;html=1;align=center;verticalAlign=middle;resizable=0;points=[];" vertex="1" connectable="0" parent="0c0Xcodrv3Obggw16LVs-51">
          <mxGeometry x="0.1751" y="-2" relative="1" as="geometry">
            <mxPoint as="offset" />
          </mxGeometry>
        </mxCell>
        <mxCell id="0c0Xcodrv3Obggw16LVs-52" value="" style="endArrow=none;html=1;rounded=0;entryX=0.5;entryY=0;entryDx=0;entryDy=0;exitX=0.5;exitY=1;exitDx=0;exitDy=0;" edge="1" parent="1" source="0c0Xcodrv3Obggw16LVs-31" target="0c0Xcodrv3Obggw16LVs-50">
          <mxGeometry relative="1" as="geometry">
            <mxPoint x="930" y="542.5" as="sourcePoint" />
            <mxPoint x="1033" y="575.5" as="targetPoint" />
          </mxGeometry>
        </mxCell>
        <mxCell id="0c0Xcodrv3Obggw16LVs-53" value="관리" style="shape=rhombus;perimeter=rhombusPerimeter;whiteSpace=wrap;html=1;align=center;" vertex="1" parent="1">
          <mxGeometry x="390" y="480" width="120" height="60" as="geometry" />
        </mxCell>
        <mxCell id="0c0Xcodrv3Obggw16LVs-54" value="" style="endArrow=none;html=1;rounded=0;exitX=0.5;exitY=1;exitDx=0;exitDy=0;entryX=0.5;entryY=0;entryDx=0;entryDy=0;" edge="1" parent="1" source="0c0Xcodrv3Obggw16LVs-1" target="0c0Xcodrv3Obggw16LVs-53">
          <mxGeometry relative="1" as="geometry">
            <mxPoint x="470" y="360" as="sourcePoint" />
            <mxPoint x="440" y="400" as="targetPoint" />
          </mxGeometry>
        </mxCell>
        <mxCell id="0c0Xcodrv3Obggw16LVs-56" value="N" style="edgeLabel;html=1;align=center;verticalAlign=middle;resizable=0;points=[];" vertex="1" connectable="0" parent="0c0Xcodrv3Obggw16LVs-54">
          <mxGeometry x="0.6556" y="-1" relative="1" as="geometry">
            <mxPoint x="-9" as="offset" />
          </mxGeometry>
        </mxCell>
        <mxCell id="0c0Xcodrv3Obggw16LVs-55" value="" style="endArrow=none;html=1;rounded=0;exitX=0.5;exitY=0;exitDx=0;exitDy=0;entryX=0.5;entryY=1;entryDx=0;entryDy=0;" edge="1" parent="1" source="0c0Xcodrv3Obggw16LVs-28" target="0c0Xcodrv3Obggw16LVs-53">
          <mxGeometry relative="1" as="geometry">
            <mxPoint x="574" y="660" as="sourcePoint" />
            <mxPoint x="460" y="605" as="targetPoint" />
          </mxGeometry>
        </mxCell>
        <mxCell id="0c0Xcodrv3Obggw16LVs-57" value="1" style="edgeLabel;html=1;align=center;verticalAlign=middle;resizable=0;points=[];" vertex="1" connectable="0" parent="0c0Xcodrv3Obggw16LVs-55">
          <mxGeometry x="0.132" y="2" relative="1" as="geometry">
            <mxPoint x="-15" y="-2" as="offset" />
          </mxGeometry>
        </mxCell>
        <mxCell id="0c0Xcodrv3Obggw16LVs-59" value="구매" style="shape=rhombus;perimeter=rhombusPerimeter;whiteSpace=wrap;html=1;align=center;" vertex="1" parent="1">
          <mxGeometry x="590" y="452.5" width="120" height="60" as="geometry" />
        </mxCell>
        <mxCell id="0c0Xcodrv3Obggw16LVs-60" value="&lt;u&gt;구매번호&lt;/u&gt;" style="ellipse;whiteSpace=wrap;html=1;align=center;" vertex="1" parent="1">
          <mxGeometry x="520" y="540" width="100" height="40" as="geometry" />
        </mxCell>
        <mxCell id="0c0Xcodrv3Obggw16LVs-61" value="수량" style="ellipse;whiteSpace=wrap;html=1;align=center;" vertex="1" parent="1">
          <mxGeometry x="640" y="545" width="100" height="40" as="geometry" />
        </mxCell>
        <mxCell id="0c0Xcodrv3Obggw16LVs-62" value="구매일자" style="ellipse;whiteSpace=wrap;html=1;align=center;" vertex="1" parent="1">
          <mxGeometry x="750" y="545" width="100" height="40" as="geometry" />
        </mxCell>
        <mxCell id="0c0Xcodrv3Obggw16LVs-63" value="" style="endArrow=none;html=1;rounded=0;exitX=0.58;exitY=0.075;exitDx=0;exitDy=0;exitPerimeter=0;entryX=0.5;entryY=1;entryDx=0;entryDy=0;" edge="1" parent="1" source="0c0Xcodrv3Obggw16LVs-60" target="0c0Xcodrv3Obggw16LVs-59">
          <mxGeometry relative="1" as="geometry">
            <mxPoint x="930" y="543" as="sourcePoint" />
            <mxPoint x="920" y="578" as="targetPoint" />
          </mxGeometry>
        </mxCell>
        <mxCell id="0c0Xcodrv3Obggw16LVs-64" value="" style="endArrow=none;html=1;rounded=0;entryX=0.5;entryY=1;entryDx=0;entryDy=0;" edge="1" parent="1" target="0c0Xcodrv3Obggw16LVs-59">
          <mxGeometry relative="1" as="geometry">
            <mxPoint x="697" y="544" as="sourcePoint" />
            <mxPoint x="638" y="509" as="targetPoint" />
          </mxGeometry>
        </mxCell>
        <mxCell id="0c0Xcodrv3Obggw16LVs-65" value="" style="endArrow=none;html=1;rounded=0;exitX=0.5;exitY=0;exitDx=0;exitDy=0;entryX=0.5;entryY=1;entryDx=0;entryDy=0;" edge="1" parent="1" source="0c0Xcodrv3Obggw16LVs-62" target="0c0Xcodrv3Obggw16LVs-59">
          <mxGeometry relative="1" as="geometry">
            <mxPoint x="707" y="554" as="sourcePoint" />
            <mxPoint x="650" y="510" as="targetPoint" />
          </mxGeometry>
        </mxCell>
        <mxCell id="0c0Xcodrv3Obggw16LVs-66" value="" style="endArrow=none;html=1;rounded=0;entryX=0;entryY=0.5;entryDx=0;entryDy=0;exitX=1;exitY=0.5;exitDx=0;exitDy=0;" edge="1" parent="1" source="0c0Xcodrv3Obggw16LVs-59" target="0c0Xcodrv3Obggw16LVs-31">
          <mxGeometry relative="1" as="geometry">
            <mxPoint x="760" y="480" as="sourcePoint" />
            <mxPoint x="880" y="623" as="targetPoint" />
            <Array as="points" />
          </mxGeometry>
        </mxCell>
        <mxCell id="0c0Xcodrv3Obggw16LVs-68" value="M" style="edgeLabel;html=1;align=center;verticalAlign=middle;resizable=0;points=[];" vertex="1" connectable="0" parent="0c0Xcodrv3Obggw16LVs-66">
          <mxGeometry x="-0.1778" y="1" relative="1" as="geometry">
            <mxPoint as="offset" />
          </mxGeometry>
        </mxCell>
      </root>
    </mxGraphModel>
  </diagram>
</mxfile>
